<svg width="40" height="40" viewBox="0 0 40 40" fill="none" xmlns="http://www.w3.org/2000/svg">
<path d="M28.01 4C32.42 4 36 7.59 36 11.99V28C36 32.41 32.41 35.99 28.01 35.99H11.99C7.58 35.99 4 32.4 4 28V11.99C4 7.58 7.59 4 11.99 4H28M28.01 1.5H11.99C6.2 1.5 1.5 6.2 1.5 11.99V28C1.5 33.8 6.2 38.49 11.99 38.49H28C33.8 38.49 38.49 33.79 38.49 28V11.99C38.49 6.19 33.79 1.5 28 1.5H28.01Z" fill="#F4F1EE"/>
<path d="M19.9304 12.9302C23.8304 12.9302 27.0004 16.1002 27.0004 20.0002C27.0004 23.9002 23.8304 27.0702 19.9304 27.0702C16.0304 27.0702 12.8604 23.9002 12.8604 20.0002C12.8604 16.1002 16.0304 12.9302 19.9304 12.9302ZM19.9304 10.4302C14.6504 10.4302 10.3604 14.7102 10.3604 20.0002C10.3604 25.2902 14.6404 29.5702 19.9304 29.5702C25.2204 29.5702 29.5004 25.2902 29.5004 20.0002C29.5004 14.7102 25.2204 10.4302 19.9304 10.4302Z" fill="#F4F1EE"/>
<path d="M29.8098 12.3598C31.058 12.3598 32.0698 11.348 32.0698 10.0998C32.0698 8.85168 31.058 7.83984 29.8098 7.83984C28.5616 7.83984 27.5498 8.85168 27.5498 10.0998C27.5498 11.348 28.5616 12.3598 29.8098 12.3598Z" fill="#F4F1EE"/>
</svg>
