<svg width="40" height="40" viewBox="0 0 40 40" fill="none" xmlns="http://www.w3.org/2000/svg">
<path d="M28.01 2H11.99C6.2 2 1.5 6.7 1.5 12.49V28.5C1.5 34.3 6.2 38.99 11.99 38.99H28C33.8 38.99 38.49 34.29 38.49 28.5V12.49C38.49 6.69 33.79 2 28 2H28.01ZM13.83 31.29H9.21V14.33H13.83V31.29ZM11.91 12.77C10.42 12.77 9.21 11.55 9.21 10.05C9.21 8.55 10.42 7.33 11.91 7.33C13.4 7.33 14.61 8.55 14.61 10.05C14.61 11.55 13.4 12.77 11.91 12.77ZM32.33 31.29H27.71V22.65C27.71 17.46 21.54 17.85 21.54 22.65V31.29H16.92V14.33H21.54V17.05C23.69 13.06 32.33 12.77 32.33 20.87V31.29Z" fill="#F4F1EE"/>
</svg>
