<svg width="40" height="40" viewBox="0 0 40 40" fill="none" xmlns="http://www.w3.org/2000/svg">
<path d="M28.01 2H11.99C6.2 2 1.5 6.7 1.5 12.49V28.5C1.5 34.3 6.2 38.99 11.99 38.99H28C33.8 38.99 38.49 34.29 38.49 28.5V12.49C38.49 6.69 33.79 2 28 2H28.01ZM30.57 18.17C28 18.4 25.7 17.16 24.41 15.21V25.43C24.41 29.2 21.74 32.56 18.01 33.1C13.37 33.77 9.38 30.18 9.38 25.67C9.38 21.16 12.99 17.92 17.35 18.17C17.35 18.17 17.35 18.17 17.35 18.18V21.59C17.2 21.57 17.04 21.54 16.89 21.54C14.63 21.54 12.84 23.49 13.08 25.79C13.24 27.34 14.37 28.69 15.88 29.08C18.37 29.72 20.88 27.87 20.88 25.42C20.88 25.34 20.92 8.16 20.92 8.16H24.46C24.79 11.32 27.36 13.82 30.58 14.05V18.16L30.57 18.17Z" fill="#F4F1EE"/>
</svg>
