<svg width="40" height="40" viewBox="0 0 40 40" fill="none" xmlns="http://www.w3.org/2000/svg">
<path fill-rule="evenodd" clip-rule="evenodd" d="M38.4705 19.07C38.2305 9.32 30.2105 1.5 20.3305 1.5C10.4505 1.5 2.60047 9.12 2.19047 18.73C2.16047 18.98 2.16047 19.26 2.16047 19.5C2.16047 22.92 3.12047 26.1 4.76047 28.84L1.48047 38.51L11.5505 35.32C14.1505 36.75 17.1505 37.54 20.3205 37.54C30.3505 37.54 38.5005 29.49 38.5005 19.51C38.5005 19.36 38.4605 19.23 38.4605 19.08L38.4705 19.07ZM20.3305 34.69C17.2305 34.69 14.3505 33.76 11.9205 32.18L6.06047 34.04L7.95047 28.4C6.12047 25.93 5.03047 22.82 5.03047 19.5C5.03047 19.01 5.07047 18.54 5.13047 18.05C5.87047 10.36 12.4105 4.36 20.3105 4.36C28.2105 4.36 34.9305 10.53 35.5505 18.33C35.5805 18.73 35.5805 19.14 35.5805 19.5C35.5805 27.87 28.7305 34.69 20.3105 34.69H20.3305Z" fill="#F4F1EE"/>
<path fill-rule="evenodd" clip-rule="evenodd" d="M25.6307 21.55C25.1907 21.44 24.9107 21.34 24.6007 21.8C24.1507 22.52 23.1907 24.1 22.2507 23.63C21.7807 23.42 20.3607 22.95 18.6507 21.43C17.3307 20.24 16.4207 18.82 16.1807 18.39C15.7907 17.66 17.0307 16.89 17.4807 15.97C17.6307 15.67 17.5707 15.41 17.4407 15.2C17.3507 14.99 16.4607 12.79 16.0807 11.92C15.7107 11.02 15.3407 11.18 15.1007 11.18C12.6307 11.18 11.4707 12.93 11.4707 15.39C11.4707 15.88 11.5707 16.41 11.7207 16.88C12.1607 18.46 13.1507 19.73 13.3007 19.95C13.5107 20.25 16.3707 24.85 20.9007 26.61C25.4507 28.38 25.4507 27.78 26.2607 27.72C27.0607 27.66 28.8907 26.67 29.2607 25.61C29.6307 24.59 29.6307 23.69 29.5007 23.5C29.3507 23.23 25.6407 21.56 25.6407 21.54L25.6307 21.55Z" fill="#F4F1EE"/>
</svg>
